<svg xmlns:xlink="http://www.w3.org/1999/xlink" xmlns="http://www.w3.org/2000/svg" alt="Apple Music" width="337.42001"  height="80.64" ><defs><symbol id="icon-applemusic" viewBox="0 0 337.42001 80.64"><g><path d="M43.8732,12.6988C46.60624,9.28037,48.46086,4.69039,47.97172,0c-4.00079,0.19894-8.88298,2.63946-11.70954,6.06057
                    c-2.53794,2.92966-4.78422,7.7118-4.19863,12.20557C36.55464,18.65572,41.04158,16.02133,43.8732,12.6988"></path><path d="M47.92068,19.14357c-6.52215-0.3885-12.06756,3.70163-15.18223,3.70163c-3.11637,0-7.88593-3.50585-13.0446-3.41137
                    c-6.71433,0.09862-12.94446,3.89497-16.3517,9.93291c-7.00811,12.07887-1.84944,29.99609,4.96557,39.83367
                    c3.30953,4.86696,7.29806,10.22584,12.55359,10.03336c4.96557-0.19486,6.91187-3.2153,12.94775-3.2153
                    c6.03144,0,7.78463,3.2153,13.04101,3.1179c5.45099-0.09746,8.85883-4.86939,12.1683-9.74109
                    c3.79665-5.54809,5.35085-10.90521,5.44862-11.1993c-0.09777-0.0974-10.51105-4.0922-10.6076-16.07069
                    c-0.09831-10.02977,8.17558-14.80048,8.56499-15.09633C57.75206,20.11855,50.45163,19.33935,47.92068,19.14357"></path></g><g><path d="M140.85696,78.62715V24.85957h-0.35449l-22.02344,53.76758h-8.4043L88.00052,24.85957h-0.35449v53.76758H77.3179V5.56953
                    h13.11328l23.64355,58.22363h0.40527l23.59277-58.22363h13.16309v73.05762H140.85696z"></path><path d="M208.33841,78.62715h-10.47949v-9.01172h-0.25391c-2.93555,6.37891-8.35352,9.97363-16.50488,9.97363
                    c-11.59375,0-18.68166-7.54395-18.68166-19.74512V25.36543h10.93556v32.35254c0,8.10059,3.84766,12.45411,11.3916,12.45411
                    c7.89844,0,12.65723-5.46777,12.65723-13.77051V25.36543h10.93555V78.62715z"></path><path d="M238.30814,24.40351c12.4043,0,20.4541,6.88574,20.80859,16.70801h-10.27832
                    c-0.60744-5.16406-4.4043-8.4043-10.53027-8.4043c-5.92383,0-9.87305,2.88574-9.87305,7.13867
                    c0,3.34082,2.43066,5.61914,8.20215,6.93555l8.65723,1.97461c10.88574,2.53125,15.03711,6.78418,15.03711,14.47949
                    c0,9.72071-9.0625,16.4043-21.61816,16.4043c-13.31543,0-21.31543-6.53125-22.32812-16.65723h10.83496
                    c1.0127,5.56934,4.80957,8.30371,11.49316,8.30371c6.58105,0,10.63184-2.73438,10.63184-7.08789
                    c0-3.44336-1.97461-5.46875-7.79688-6.78516l-8.65723-2.02441c-10.12598-2.3291-15.13867-7.18945-15.13867-14.93555
                    C217.75247,30.93476,226.05618,24.40351,238.30814,24.40351z"></path><path d="M267.92239,11.2917c0-3.49316,2.83496-6.27734,6.32812-6.27734c3.49414,0,6.27832,2.78418,6.27832,6.27734
                    c0,3.44336-2.78418,6.27832-6.27832,6.27832C270.75735,17.57002,267.92239,14.73506,267.92239,11.2917z M268.78275,25.36543
                    h10.93555v53.26172h-10.93555V25.36543z"></path><path d="M325.88626,43.69355c-1.11328-5.6709-5.36621-10.17676-12.50488-10.17676c-8.45508,0-14.02441,7.03711-14.02441,18.47949
                    c0,11.69531,5.62012,18.4795,14.12598,18.4795c6.7334,0,11.1377-3.69531,12.40332-9.87207h10.53125
                    c-1.16504,11.34082-10.22754,19.03614-23.03613,19.03614c-15.23926,0-25.16211-10.42969-25.16211-27.64356
                    c0-16.91016,9.92285-27.59277,25.06055-27.59277c13.7207,0,22.07422,8.80957,23.03613,19.29004H325.88626z"></path></g></symbol></defs><use xmlns:xlink="http://www.w3.org/1999/xlink" xlink:href="#icon-applemusic" fill="#FFFFFF"></use></svg>