<svg xmlns:xlink="http://www.w3.org/1999/xlink" xmlns="http://www.w3.org/2000/svg" class="shazam-logo" width="400"  height="400" ><defs><symbol id="icon-shazam_logo" viewBox="0 595.3 400 400"><path d="M200 595.3c-110 0-200 90-200 200s90 200 200 200 200-90 200-200-90-200-200-200zm-32.5 280c-20 0-42.5-7.5-57.5-20-20-17.5-32.5-40-32.5-65-2.5-25 5-47.5 22.5-65 17.5-22.5 50-52.5 52.5-55 10-7.5 22.5-7.5 32.5 0 7.5 10 7.5 22.5 0 32.5l-50 50c-7.5 10-12.5 20-12.5 32.5s7.5 25 17.5 32.5c12.5 12.5 40 15 57.5 0l22.5-22.5c7.5-10 22.5-10 32.5-2.5s10 22.5 2.5 32.5l-25 25c-20 17.5-42.5 25-62.5 25zm135-2.5c-17.5 22.5-52.5 52.5-52.5 55-5 5-10 5-15 5s-12.5-2.5-17.5-7.5c-7.5-10-7.5-22.5 0-32.5l50-50c7.5-10 12.5-20 12.5-32.5s-7.5-25-17.5-32.5c-12.5-12.5-40-15-57.5 0l-22.5 22.5c-7.5 10-22.5 10-32.5 2.5-7.5-10-7.5-25 0-32.5l25-25c32.5-27.5 85-30 117.5 0 20 17.5 32.5 40 32.5 65 2.5 22.5-5 45-22.5 62.5z"></path></symbol></defs><use xmlns:xlink="http://www.w3.org/1999/xlink" xlink:href="#icon-shazam_logo" fill="#0088FF"></use></svg>