<svg xmlns:xlink="http://www.w3.org/1999/xlink" xmlns="http://www.w3.org/2000/svg" class="button-svg" width="250"  height="250" ><defs><symbol id="icon-shazam_white_logo_2" viewBox="0 0 155.8 155.8"><g><path fill-opacity="0.3" d="M77.9 15.6c-34.4 0-62.3 27.9-62.3 62.3s27.9 62.3 62.3 62.3 62.3-27.9 62.3-62.3-27.9-62.3-62.3-62.3z"></path><path d="M66.9 102.4c-6.6 0-13.3-2.2-18.4-6.6C42.3 90.3 38.6 83 38.1 75c-.5-7.7 2.2-15.2 7.4-21 5.9-6.5 16.5-16.6 16.9-17.1 2.9-2.7 7.4-2.6 10.1.2 2.7 2.9 2.6 7.4-.2 10.2-.1.1-10.6 10.2-16.2 16.3-2.6 2.9-3.9 6.6-3.7 10.5.3 4.1 2.2 7.9 5.5 10.8 4.4 3.8 13 4.6 18.3-.2 3.2-2.9 7.1-7.1 7.1-7.1 2.7-2.9 7.2-3.1 10.1-.4 2.9 2.7 3.1 7.2.4 10.2-.2.2-4.4 4.8-8.1 8.1-5 4.5-11.9 6.9-18.8 6.9z"></path><path d="M110.3 101.8c-5.9 6.5-16.5 16.6-16.9 17.1-1.4 1.3-3.2 2-5 2-1.9 0-3.8-.7-5.2-2.2-2.7-2.9-2.6-7.4.2-10.2.1-.1 10.6-10.2 16.2-16.3 2.6-2.9 3.9-6.6 3.7-10.5-.2-4.1-2.2-7.9-5.5-10.8-4.4-3.8-13-4.6-18.3.2-3.2 2.9-7.1 7.1-7.1 7.1-2.7 2.9-7.2 3.1-10.1.4-2.9-2.7-3.1-7.2-.4-10.2.2-.2 4.4-4.8 8.1-8.1 10.2-9.2 26.9-9.4 37.3-.4 6.3 5.4 10 12.8 10.5 20.8.4 7.9-2.2 15.3-7.5 21.1z"></path></g></symbol></defs><use xmlns:xlink="http://www.w3.org/1999/xlink" xlink:href="#icon-shazam_white_logo_2" stroke-opacity="0.1" stroke="#FFFFFF" fill="#FFFFFF" stroke-width="2px"></use></svg>